<svg xmlns="http://www.w3.org/2000/svg" viewBox="0 0 691.03 185"><defs><style>.cls-1{fill:#9a8b7c}.cls-2{fill:#7e0c6e}</style></defs><g id="Layer_2" data-name="Layer 2"><g id="Layer_1-2" data-name="Layer 1"><g id="Layer_1-2-2" data-name="Layer 1-2"><path class="cls-1" d="M135.64 159.59h3.26l2.73 20.58h.07l9-20.58h3.3l3.15 20.58h.07l8.65-20.58H169l-10.78 24.78H155l-3.18-21h-.07l-9.1 21h-3.22zM170.23 157.91H173l-1.72 12.36h.07a7.1 7.1 0 015.6-2.7c4.31 0 5.88 2.73 5.32 6.69l-1.43 10.11h-2.73l1.36-9.83c.39-2.74-.56-4.45-3.11-4.45-3.54 0-5.43 2.55-6 6.3l-1.12 8h-2.73zM199.32 181.4a9.79 9.79 0 01-7.77 3.39c-5.15 0-7.74-3.85-7.07-8.61a9.69 9.69 0 019.59-8.61c4.62 0 7.35 3.15 6.58 8.58l-.11.87h-13.23a4.59 4.59 0 003.9 5.2 4 4 0 00.69.05 7.06 7.06 0 005.56-2.48zm-1.4-6.69c.28-2.76-1.3-4.62-4.31-4.62a6 6 0 00-6 4.62zM203.76 171.87c.21-1.5.25-2.8.42-3.88h2.59c-.14.88-.17 1.79-.31 2.7h.07a6.93 6.93 0 015.88-3.12 3.54 3.54 0 011.12.17l-.56 2.77a5 5 0 00-1.44-.21c-3.32 0-5.14 2.34-5.67 6.09l-1.12 8H202zM227 181.4a9.75 9.75 0 01-7.77 3.39c-5.15 0-7.74-3.85-7.07-8.61a9.69 9.69 0 019.59-8.61c4.62 0 7.35 3.15 6.58 8.58l-.1.87H215c-.21 2.84 1.61 5.25 4.58 5.25a7.08 7.08 0 005.57-2.48zm-1.4-6.69c.28-2.76-1.29-4.62-4.3-4.62a6 6 0 00-6 4.62zM252.88 164a4.44 4.44 0 00-4.21-2.27c-2.59 0-5.46 1.22-5.88 4.17-.31 2.27.81 3.28 4.59 4.54s7.07 2.49 6.41 7.36-5.29 7.2-9.79 7.2c-2.87 0-5.81-.94-7.14-3.43l2.83-2.06a5 5 0 004.87 2.76c2.52 0 5.6-1.47 6-4.3.42-3.05-1.58-3.57-5.78-5-3.32-1.16-5.77-2.7-5.21-6.83.66-4.76 5.11-7.14 9.45-7.14 2.77 0 5 .77 6.51 2.9zM268.87 172.09a4.3 4.3 0 00-3.85-2c-3.67 0-5.91 2.73-6.37 6.09s1.33 6.09 4.66 6.09a5.66 5.66 0 004.48-2l1.75 1.93a9.17 9.17 0 01-6.58 2.62c-5.08 0-7.95-3.57-7.25-8.61a9.71 9.71 0 019.66-8.61 7.23 7.23 0 015.95 2.59zM280.81 167.57c5 0 8.26 3.5 7.56 8.61a9.91 9.91 0 01-10 8.61c-5 0-8.27-3.5-7.53-8.61a9.87 9.87 0 019.97-8.61zm-2.06 14.7a6.8 6.8 0 006.68-6.09c.49-3.43-1.43-6.09-5-6.09a6.77 6.77 0 00-6.65 6.09c-.46 3.43 1.43 6.09 4.97 6.09zM300.69 170.3h-4.83l-1.15 8.19c-.32 2.1-.53 3.78 1.89 3.78a5.94 5.94 0 002.52-.56l-.25 2.49a9 9 0 01-3.29.59c-3.88 0-4.2-2.1-3.74-5.49l1.29-9h-3.57l.32-2.31h3.57l.63-4.66h2.73l-.63 4.66H301zM304.3 157.91h2.7l-3.71 26.46h-2.73zM308.81 170.09a10.42 10.42 0 016.87-2.52c4.83 0 6.54 2.31 5.91 6.93l-1 7a17.83 17.83 0 00-.14 2.83h-2.63a11.19 11.19 0 01.18-2.45h-.07a7.3 7.3 0 01-5.81 2.87c-3.33 0-5.85-1.68-5.4-4.86.77-5.43 7.11-5.74 11.14-5.74h1l.07-.49c.31-2.39-1-3.61-3.57-3.61a8.33 8.33 0 00-5.11 1.78zm7 6.41c-3.46 0-5.85.94-6.16 3.15-.28 2.06 1.16 2.83 3.22 2.83a5.49 5.49 0 005.5-4.94l.17-1zM325.23 171.87c.21-1.5.25-2.8.42-3.88h2.59c-.14.88-.17 1.79-.31 2.7h.07a6.93 6.93 0 015.88-3.12c4.3 0 5.88 2.73 5.32 6.69l-1.44 10.11H335l1.37-9.83c.38-2.74-.56-4.45-3.12-4.45-3.53 0-5.42 2.55-5.95 6.3l-1.12 8h-2.73zM355.27 181.47h-.07a8.41 8.41 0 01-6.79 3.32c-4.59 0-7.67-3.71-7-8.61a9.76 9.76 0 019.8-8.61 6.51 6.51 0 015.5 2.8h.07l1.75-12.46h2.73l-3.71 26.46h-2.73zM351 170.09a6.77 6.77 0 00-6.65 6.09c-.49 3.43 1.4 6.09 4.94 6.09a6.8 6.8 0 006.68-6.09c.52-3.43-1.4-6.09-4.97-6.09zM370.67 171.87c.21-1.5.25-2.8.42-3.88h2.59c-.14.88-.17 1.79-.31 2.7h.07a6.93 6.93 0 015.88-3.12c3.53 0 4.37 2 4.76 3.12 1.47-1.93 3.11-3.12 5.6-3.12 4.69 0 5.88 2.63 5.28 6.86l-1.4 9.94h-2.73l1.37-9.8c.31-2.28-.18-4.48-3.36-4.48-2.31 0-4.48 1.89-4.9 4.83l-1.33 9.45h-2.73l1.29-9.27c.53-3.61-.21-5-2.45-5-3.53 0-5.42 2.55-6 6.3l-1.12 8h-2.73zM412.08 181.4a9.75 9.75 0 01-7.77 3.39c-5.15 0-7.74-3.85-7.07-8.61a9.69 9.69 0 019.59-8.61c4.62 0 7.35 3.15 6.58 8.58l-.1.87h-13.24c-.2 2.84 1.62 5.25 4.59 5.25a7.08 7.08 0 005.57-2.48zm-1.4-6.69c.28-2.76-1.29-4.62-4.3-4.62a6 6 0 00-6 4.62zM429.83 181.4a9.79 9.79 0 01-7.77 3.39c-5.15 0-7.74-3.85-7.07-8.61a9.69 9.69 0 019.59-8.61c4.62 0 7.35 3.15 6.58 8.58l-.1.87h-13.24a4.59 4.59 0 003.9 5.2 4 4 0 00.69.05 7.11 7.11 0 005.57-2.48zm-1.4-6.69c.28-2.76-1.3-4.62-4.31-4.62a6 6 0 00-6 4.62zM443.48 170.3h-4.83l-1.15 8.19c-.32 2.1-.53 3.78 1.89 3.78a5.94 5.94 0 002.52-.56l-.25 2.49a9 9 0 01-3.29.59c-3.88 0-4.2-2.1-3.74-5.49l1.29-9h-3.57l.32-2.31h3.57l.63-4.66h2.73L439 168h4.83z"/><path class="cls-1" d="M444.08 180.07a4.31 4.31 0 003.88 2.2c1.72 0 3.71-.73 4-2.52s-1.47-2.21-3.15-2.59c-3-.7-5.6-1.37-5.11-4.76.46-3.19 3.75-4.83 6.79-4.83 2.31 0 4.34.88 5.18 3l-2.52 1.51a3.26 3.26 0 00-3.18-2c-1.51 0-3.33.73-3.54 2.28-.17 1.36 1.68 2 3.82 2.38 2.8.55 5.11 1.61 4.65 4.9-.52 3.71-4 5.14-7.28 5.14-2.76 0-4.65-.73-5.91-3zM475.3 170.3h-4.83l-1.15 8.19c-.32 2.1-.53 3.78 1.89 3.78a5.94 5.94 0 002.52-.56l-.25 2.49a9 9 0 01-3.29.59c-3.88 0-4.2-2.1-3.74-5.49l1.29-9h-3.57l.32-2.31h3.57l.63-4.66h2.73l-.63 4.66h4.83zM478.66 157.91h2.73l-1.71 12.36h.07a7.1 7.1 0 015.6-2.7c4.3 0 5.88 2.73 5.32 6.69l-1.44 10.11h-2.73l1.37-9.83c.38-2.74-.56-4.45-3.12-4.45-3.53 0-5.42 2.55-5.95 6.3l-1.12 8H475zM507.75 181.4a9.75 9.75 0 01-7.77 3.39c-5.14 0-7.74-3.85-7.07-8.61a9.69 9.69 0 019.59-8.61c4.62 0 7.35 3.15 6.58 8.58l-.1.87h-13.23c-.21 2.84 1.61 5.25 4.58 5.25a7.08 7.08 0 005.57-2.48zm-1.4-6.69c.28-2.76-1.29-4.62-4.3-4.62a6 6 0 00-6 4.62zM536 184.37h-2.7l-2.87-12.6h-.07l-5.92 12.6h-2.8l-3-16.38h3l2 12.6h.07l6-12.6h2.88l2.52 12.6h.07l5.49-12.6h2.94zM552.84 167.57c5 0 8.26 3.5 7.56 8.61a9.91 9.91 0 01-10 8.61c-5 0-8.26-3.5-7.52-8.61a9.86 9.86 0 019.96-8.61zm-2.07 14.7a6.81 6.81 0 006.69-6.09c.49-3.43-1.43-6.09-5-6.09a6.77 6.77 0 00-6.65 6.09c-.46 3.43 1.43 6.09 4.96 6.09zM563.52 171.87c.21-1.5.24-2.8.42-3.88h2.59c-.14.88-.18 1.79-.32 2.7h.07a7 7 0 015.88-3.12 3.28 3.28 0 011.12.17l-.56 2.77a5 5 0 00-1.43-.21c-3.33 0-5.15 2.34-5.67 6.09l-1.12 8h-2.73zM576.33 157.91h2.73l-3.71 26.46h-2.73zM593.1 181.47h-.1a8.43 8.43 0 01-6.8 3.32c-4.58 0-7.66-3.71-7-8.61a9.75 9.75 0 019.8-8.61 6.49 6.49 0 015.49 2.8h.08l1.75-12.46h2.73l-3.72 26.46h-2.72zm-4.24-11.38a6.77 6.77 0 00-6.65 6.09c-.49 3.43 1.4 6.09 4.94 6.09a6.8 6.8 0 006.68-6.09c.49-3.43-1.43-6.09-4.97-6.09z"/><path class="cls-2" d="M673.39 12.69l4.29-9.09A51.64 51.64 0 00667.34.68l-1.9 3.77L662 4l1.21-3.86a3.78 3.78 0 01-.82-.06C661.05 0 659.2 0 658.16 0h-3c-.55 0-1.09.07-1.64.12L654.8 4l-3.86.37-1.7-3.6a51.59 51.59 0 00-10.41 3.05l3.83 8.61c7.14-1.43 18.72-2.66 30.73.26zM38.91 128.93l-.3 11.13H0V83.3h37.47l.23 11.27H12.79v11.28h21V116h-21v12.94zM71.17 140.06L70 136.12l-.22-.07C67.05 139.23 63 141 57.51 141 45.73 141 40 133.32 40 116.9c0-15.06 5.75-23.61 17.41-23.61a16.44 16.44 0 0111.2 4.16l.16-.15-.16-6.06V81.18l11.74-.61v59.49zm-2.58-32.77a9.29 9.29 0 00-7.72-3.48c-6.43 0-8.78 3.33-8.78 13.62 0 10.75 2 14 8.71 14 4.31 0 6.74-2 7.79-3.86zM92 89.28c-4.55 0-6.74-1.29-6.74-5 0-3.25 2.19-5.07 6.74-5.07s6.66 1.74 6.66 5.07-2.04 5-6.66 5zm-6 50.78V94.5l12-.5v46.09zM130.45 140.06v-29.22c0-5.07-2.58-7.11-7.42-7.11a9.79 9.79 0 00-7.73 3.48v32.85h-11.8V94.42l8.47-.53 1.75 3.94a19.17 19.17 0 0112.64-4.54c9.69 0 15.82 6.13 15.82 17.55v29.22zM167.79 141a17 17 0 01-12.19-4.69l-1.52 3.78h-7.94v-59l11.73-.53v10.68l-.15 6.06.23.15a16.57 16.57 0 0111.27-4.09c10.6 0 17.26 6.81 17.26 23.62S179.52 141 167.79 141zm-2-37.32a9.39 9.39 0 00-7.95 3.86v20.06a9.16 9.16 0 008 3.94c5.3 0 8.48-2.43 8.48-14.31.05-11.46-2.9-13.58-8.5-13.58zM228.2 123.86c0 11.13-6.28 17-19.3 17s-19.3-6.13-19.3-17V94.19h11.73v29.44c0 4.55 2.42 6.89 7.57 6.89s7.57-2.19 7.57-6.89V94.19h11.73zM231.9 140.06V94.5l9.39-.46 1.06 7.65h.23c2.87-5.53 7.34-8.25 12.56-8.25a17.24 17.24 0 015 .68l-.76 11.58a16.93 16.93 0 00-5-.76c-6.13 0-10.67 4.47-10.67 12.11v23zM273 121.14a2.66 2.66 0 00-1.58 2.19c0 1.14 1 2 3 2.12l10.9.6c10.75.61 14.84 4.62 14.84 11.66 0 9.16-6.13 14.84-21 14.84-13.17 0-18.63-5.15-18.63-12.11a9.78 9.78 0 013.56-7.42 8.08 8.08 0 01-3.48-6.74c0-3 1.74-6 5.53-7.87-3-2.19-5-5.6-5-10.82 0-8.32 4.85-14.23 17.56-14.23 3.94 0 8.18.61 11.44 2.5l7.79-2.5 2.42 5.6-4.84 3.79a15.56 15.56 0 01.68 4.84c0 8.85-5 14-17.41 14a34.92 34.92 0 01-5.78-.45zm-.6 14.08a5.32 5.32 0 00-1.89 3.71c0 3.18 2.42 4.77 8.4 4.77 8.63 0 10.75-1.67 10.75-4.24 0-2.12-1.21-3.11-6.36-3.49zm.3-27.32c0 4.46 2.35 5.59 5.83 5.59 4.92 0 6.36-1.51 6.36-5.67s-1.74-5.61-6.06-5.61c-4.52 0-6.11 1.67-6.11 5.69zM329.73 140.06v-29.22c0-4.69-2.35-7.11-7.34-7.11a9.81 9.81 0 00-7.8 3.48v32.85h-11.73V81.18l11.73-.61V91l-.15 6 .23.15a17.51 17.51 0 0111.43-3.93c9.69 0 15.36 6.5 15.36 17.55V140zM396.35 129h-20.59l-3.18 11.05h-13.47l19.6-56.76h15.22l19.83 56.76h-14.23zm-11.81-30.11l-5.68 19.45h14.46l-5.45-19.45-1.52-6h-.22zM421.58 89.28c-4.54 0-6.74-1.29-6.74-5 0-3.25 2.2-5.07 6.74-5.07s6.66 1.74 6.66 5.07-2.04 5-6.66 5zm-6.06 50.78V94.5l12-.53v46.09zM432.1 140.06V94.5l9.38-.46 1.06 7.65h.23c2.88-5.53 7.34-8.25 12.57-8.25a17.24 17.24 0 015 .68l-.75 11.58a16.93 16.93 0 00-5-.76c-6.13 0-10.67 4.47-10.67 12.11v23zM485.62 140.82c-4.08 0-7.72-.84-10.67-3.71l-.23.07.15 6.14v8.4H463V94.5l8.25-.53 2.27 4a18.23 18.23 0 0112.41-4.62c11.29 0 17.49 6.13 17.49 23.69-.01 16.13-7.05 23.78-17.8 23.78zm-2.87-37a9.36 9.36 0 00-7.88 3.7v19.68a8.75 8.75 0 007.65 3.94c5.22 0 8.71-2.5 8.71-14.15 0-10.53-2.58-13.18-8.48-13.18zM525.9 141.12c-14.53 0-21-7-21-23.84s6.51-23.92 21-23.92 21 7.12 21 23.92-6.39 23.84-21 23.84zm0-9.61c6.44 0 8.79-3 8.79-14.23s-2.35-14.23-8.79-14.23-8.85 3-8.85 14.23 2.42 14.23 8.85 14.23zM550.36 140.06V94.5l9.39-.46 1.06 8.43h.19c2.87-5.52 6.29-8.25 11.52-8.25 2 0 2.79-.1 6-.1l.87 8.89h-7.79c-6.13 0-9.51 6.4-9.51 14v23z"/><path class="cls-2" d="M577.74 94.19l2-10.36L589 83v11.2h10.22v8.8h-10.28v23.47c0 3.55 1.82 5.07 5.45 5.07A12.29 12.29 0 00598 131l.68 8.56a22.19 22.19 0 01-7.87 1.29c-9.17 0-13.63-5.3-13.63-14V103M614.44 135.78a169 169 0 0015.88-20 330.86 330.86 0 0160.71 19 236.88 236.88 0 00-76.59.95zM691 127.88a380.7 380.7 0 01-49.15-33.71 92.14 92.14 0 004.5-15c13.49 19.43 28.13 35.39 44.65 48.71zM682.67 127.39a333.46 333.46 0 00-50.18-14.9 114.89 114.89 0 007.81-14.6 382.18 382.18 0 0042.37 29.5zM680.89 113.76a239.68 239.68 0 01-33.54-40.3 83.2 83.2 0 00.81-11.59c0-1.16 0-2.32-.06-3.49 7.55 17.23 18.99 36.55 32.79 55.38zM678.24 103.11c-14.84-21.53-26.19-43-31.83-60.62-2.39-12.8-6.72-21.21-8.93-24.88a80.07 80.07 0 0116.94-2.39h5.76c-1.62 8-6.18 40.65 15.67 82.86.77 1.68 1.56 3.36 2.39 5.03z"/><path class="cls-2" d="M668.14 68.06c-8.07-27.62-4.87-47.4-3.77-52.56a80.15 80.15 0 0114 2.53C674.89 23.94 668 38.62 668 61.87c-.09 2.05 0 4.13.14 6.19z"/></g></g></g></svg>